<?xml version="1.0" encoding="UTF-8"?><svg height='42px' width='42px'  fill="green" xmlns="http://www.w3.org/2000/svg" xmlns:xlink="http://www.w3.org/1999/xlink" version="1.1" x="0px" y="0px" viewBox="0 0 100 100" style="enable-background:new 0 0 100 100;" xml:space="preserve"><style type="text/css">
	.st0{display:none;}
	.st1{display:inline;}
	.st2{fill:none;}
	.st3{fill:green;}
	.st4{fill:none;stroke:#000000;stroke-miterlimit:10;}
	.st5{fill:#000000;}
	.st6{fill:none;stroke:#000000;stroke-miterlimit:10;}
	.st7{fill:none;stroke:#000000;stroke-width:1.5;stroke-linecap:square;stroke-miterlimit:10;stroke-dasharray:0,3;}
	.st8{fill:none;stroke:#000000;stroke-width:0.25;stroke-miterlimit:10;}
	.st9{fill:none;stroke:#000000;stroke-width:1.2;stroke-miterlimit:10;}
	.st10{fill:none;stroke:#000000;stroke-width:2;stroke-miterlimit:10;}
	.st11{fill:#000000;stroke:#000000;stroke-width:2;stroke-miterlimit:10;}
	.st12{stroke:#000000;stroke-width:0.75;stroke-miterlimit:10;}
	.st13{fill:none;stroke:#000000;stroke-width:3;stroke-miterlimit:10;}
	.st14{stroke:#000000;stroke-miterlimit:10;}
	.st15{fill:none;stroke:#000000;stroke-width:2.5;stroke-miterlimit:10;}
	.st16{fill:none;stroke:#000000;stroke-width:4;stroke-miterlimit:10;}
</style><g><g><g><path class="st2" d="M47.8,41.6c6.8,0,12.4-5.6,12.4-12.4c0-6.8-5.6-12.4-12.4-12.4c-6.8,0-12.4,5.6-12.4,12.4     C35.4,36.1,40.9,41.6,47.8,41.6z"></path><path d="M47.8,45.8c9.1,0,16.5-7.4,16.5-16.5c0-9.1-7.4-16.6-16.5-16.6s-16.5,7.4-16.5,16.6C31.2,38.4,38.7,45.8,47.8,45.8z      M47.8,16.9c6.8,0,12.4,5.6,12.4,12.4c0,6.8-5.6,12.4-12.4,12.4c-6.8,0-12.4-5.6-12.4-12.4C35.4,22.4,40.9,16.9,47.8,16.9z"></path><path d="M56.9,52.1l9,0l1.7,7.2l3.9-1l-2.5-10.2l-15.5,0l-0.2,1.7c0,0-0.2,1.6-1.1,3.1c-1.1,1.9-2.5,2.8-4.5,2.8     c-4.6,0-5.5-5.6-5.5-5.9L42,48.1l-15.5,0l-7.3,28.6l3.9,1l6.5-25.6l9,0c1.1,3.8,4,7.6,9.2,7.6C52.9,59.7,55.8,55.8,56.9,52.1z"></path></g><g><polygon class="st3" points="65.8,83.4 55.3,72.9 59.1,69.1 65.3,75.3 76.6,61 80.8,64.4    "></polygon></g></g></g></svg>
